<mxfile host="Electron" agent="Mozilla/5.0 (Windows NT 10.0; Win64; x64) AppleWebKit/537.36 (KHTML, like Gecko) draw.io/27.0.9 Chrome/134.0.6998.205 Electron/35.4.0 Safari/537.36" version="27.0.9">
  <diagram name="Сторінка-1" id="15wDt51t99DbP3WcKGB0">
    <mxGraphModel dx="815" dy="-688" grid="1" gridSize="10" guides="1" tooltips="1" connect="1" arrows="1" fold="1" page="1" pageScale="1" pageWidth="827" pageHeight="1169" math="0" shadow="0">
      <root>
        <mxCell id="0" />
        <mxCell id="1" parent="0" />
        <mxCell id="tYla--Y2_iNf4SeD7CXf-28" value="" style="rounded=1;whiteSpace=wrap;html=1;strokeWidth=2;" vertex="1" parent="1">
          <mxGeometry x="470" y="1840" width="120" height="90" as="geometry" />
        </mxCell>
        <mxCell id="tYla--Y2_iNf4SeD7CXf-3" value="" style="shape=image;verticalLabelPosition=bottom;labelBackgroundColor=default;verticalAlign=top;aspect=fixed;imageAspect=0;image=https://pinout.beagley.ai/resources/beagley-orientation.png;" vertex="1" parent="1">
          <mxGeometry x="80" y="1720" width="262.4" height="410" as="geometry" />
        </mxCell>
        <mxCell id="tYla--Y2_iNf4SeD7CXf-5" value="" style="rounded=1;whiteSpace=wrap;html=1;opacity=40;strokeColor=none;" vertex="1" parent="1">
          <mxGeometry x="76.2" y="1710" width="270" height="430" as="geometry" />
        </mxCell>
        <mxCell id="tYla--Y2_iNf4SeD7CXf-10" value="5V" style="text;html=1;align=center;verticalAlign=middle;whiteSpace=wrap;rounded=0;strokeWidth=1;fontSize=9;" vertex="1" parent="1">
          <mxGeometry x="491.68181818181813" y="1900" width="15" height="17" as="geometry" />
        </mxCell>
        <mxCell id="tYla--Y2_iNf4SeD7CXf-17" value="PWM" style="text;html=1;align=center;verticalAlign=middle;whiteSpace=wrap;rounded=0;fontSize=9;" vertex="1" parent="1">
          <mxGeometry x="504.6363636363636" y="1910" width="30" height="17" as="geometry" />
        </mxCell>
        <mxCell id="tYla--Y2_iNf4SeD7CXf-18" value="GND" style="text;html=1;align=center;verticalAlign=middle;whiteSpace=wrap;rounded=0;fontSize=9;" vertex="1" parent="1">
          <mxGeometry x="525.0909090909091" y="1900" width="30" height="17" as="geometry" />
        </mxCell>
        <mxCell id="tYla--Y2_iNf4SeD7CXf-19" value="TACH" style="text;html=1;align=center;verticalAlign=middle;whiteSpace=wrap;rounded=0;fontSize=9;" vertex="1" parent="1">
          <mxGeometry x="545.5454545454545" y="1910" width="30" height="17" as="geometry" />
        </mxCell>
        <mxCell id="tYla--Y2_iNf4SeD7CXf-32" value="" style="endArrow=none;html=1;rounded=0;edgeStyle=orthogonalEdgeStyle;curved=1;startFill=0;entryX=0;entryY=0.444;entryDx=0;entryDy=0;entryPerimeter=0;exitX=1;exitY=0.5;exitDx=0;exitDy=0;strokeWidth=2;" edge="1" parent="1" source="tYla--Y2_iNf4SeD7CXf-35" target="tYla--Y2_iNf4SeD7CXf-28">
          <mxGeometry width="50" height="50" relative="1" as="geometry">
            <mxPoint x="330" y="2030" as="sourcePoint" />
            <mxPoint x="460" y="1890" as="targetPoint" />
            <Array as="points">
              <mxPoint x="390" y="2027" />
              <mxPoint x="390" y="1880" />
            </Array>
          </mxGeometry>
        </mxCell>
        <mxCell id="tYla--Y2_iNf4SeD7CXf-20" value="" style="rounded=0;whiteSpace=wrap;html=1;strokeColor=#6C6C6C;" vertex="1" parent="1">
          <mxGeometry x="485" y="1850" width="90" height="40" as="geometry" />
        </mxCell>
        <mxCell id="tYla--Y2_iNf4SeD7CXf-21" value="" style="ellipse;whiteSpace=wrap;html=1;aspect=fixed;fillColor=#5D5D5D;strokeColor=none;" vertex="1" parent="1">
          <mxGeometry x="493.18181818181813" y="1863.3333333333333" width="12" height="12" as="geometry" />
        </mxCell>
        <mxCell id="tYla--Y2_iNf4SeD7CXf-22" value="" style="ellipse;whiteSpace=wrap;html=1;aspect=fixed;fillColor=#5D5D5D;strokeColor=none;" vertex="1" parent="1">
          <mxGeometry x="513.6363636363636" y="1863.3333333333333" width="12" height="12" as="geometry" />
        </mxCell>
        <mxCell id="tYla--Y2_iNf4SeD7CXf-23" value="" style="ellipse;whiteSpace=wrap;html=1;aspect=fixed;fillColor=#5D5D5D;strokeColor=none;" vertex="1" parent="1">
          <mxGeometry x="534.0909090909091" y="1863.3333333333333" width="12" height="12" as="geometry" />
        </mxCell>
        <mxCell id="tYla--Y2_iNf4SeD7CXf-24" value="" style="ellipse;whiteSpace=wrap;html=1;aspect=fixed;fillColor=#5D5D5D;strokeColor=none;" vertex="1" parent="1">
          <mxGeometry x="554.5454545454545" y="1863.3333333333333" width="12" height="12" as="geometry" />
        </mxCell>
        <mxCell id="tYla--Y2_iNf4SeD7CXf-13" value="" style="endArrow=none;html=1;rounded=0;" edge="1" parent="1">
          <mxGeometry width="50" height="50" relative="1" as="geometry">
            <mxPoint x="499" y="1900" as="sourcePoint" />
            <mxPoint x="499" y="1880" as="targetPoint" />
          </mxGeometry>
        </mxCell>
        <mxCell id="tYla--Y2_iNf4SeD7CXf-14" value="" style="endArrow=none;html=1;rounded=0;exitX=0.5;exitY=0;exitDx=0;exitDy=0;" edge="1" parent="1" source="tYla--Y2_iNf4SeD7CXf-17">
          <mxGeometry width="50" height="50" relative="1" as="geometry">
            <mxPoint x="520" y="1900" as="sourcePoint" />
            <mxPoint x="520" y="1880" as="targetPoint" />
          </mxGeometry>
        </mxCell>
        <mxCell id="tYla--Y2_iNf4SeD7CXf-15" value="" style="endArrow=none;html=1;rounded=0;" edge="1" parent="1">
          <mxGeometry width="50" height="50" relative="1" as="geometry">
            <mxPoint x="540" y="1900" as="sourcePoint" />
            <mxPoint x="540" y="1880" as="targetPoint" />
          </mxGeometry>
        </mxCell>
        <mxCell id="tYla--Y2_iNf4SeD7CXf-16" value="" style="endArrow=none;html=1;rounded=0;exitX=0.5;exitY=0;exitDx=0;exitDy=0;" edge="1" parent="1" source="tYla--Y2_iNf4SeD7CXf-19">
          <mxGeometry width="50" height="50" relative="1" as="geometry">
            <mxPoint x="561" y="1900" as="sourcePoint" />
            <mxPoint x="561" y="1880" as="targetPoint" />
          </mxGeometry>
        </mxCell>
        <mxCell id="tYla--Y2_iNf4SeD7CXf-35" value="" style="rounded=1;whiteSpace=wrap;html=1;opacity=40;fillColor=default;strokeColor=none;" vertex="1" parent="1">
          <mxGeometry x="300.8" y="2013" width="41.2" height="28" as="geometry" />
        </mxCell>
        <mxCell id="tYla--Y2_iNf4SeD7CXf-36" value="" style="rounded=1;whiteSpace=wrap;html=1;fillColor=none;strokeColor=#5F4A6A;strokeWidth=3;" vertex="1" parent="1">
          <mxGeometry x="301.2" y="2013" width="41.2" height="28" as="geometry" />
        </mxCell>
      </root>
    </mxGraphModel>
  </diagram>
</mxfile>
